<?xml version="1.0" encoding="UTF-8" standalone="no"?>
<svg
   xmlns:dc="http://purl.org/dc/elements/1.1/"
   xmlns:cc="http://creativecommons.org/ns#"
   xmlns:rdf="http://www.w3.org/1999/02/22-rdf-syntax-ns#"
   xmlns:svg="http://www.w3.org/2000/svg"
   xmlns="http://www.w3.org/2000/svg"
   xmlns:sodipodi="http://sodipodi.sourceforge.net/DTD/sodipodi-0.dtd"
   xmlns:inkscape="http://www.inkscape.org/namespaces/inkscape"
   width="210mm"
   height="297mm"
   viewBox="0 0 210 297"
   version="1.1"
   id="svg8"
   sodipodi:docname="logo.svg"
   inkscape:version="1.0.1 (3bc2e813f5, 2020-09-07)">
  <defs
     id="defs2" />
  <sodipodi:namedview
     id="base"
     pagecolor="#ffffff"
     bordercolor="#666666"
     borderopacity="1.0"
     inkscape:pageopacity="0.0"
     inkscape:pageshadow="2"
     inkscape:zoom="0.7"
     inkscape:cx="172.23321"
     inkscape:cy="547.72025"
     inkscape:document-units="mm"
     inkscape:current-layer="layer1"
     inkscape:document-rotation="0"
     showgrid="false"
     inkscape:window-width="1560"
     inkscape:window-height="1040"
     inkscape:window-x="277"
     inkscape:window-y="55"
     inkscape:window-maximized="0" />
  <metadata
     id="metadata5">
    <rdf:RDF>
      <cc:Work
         rdf:about="">
        <dc:format>image/svg+xml</dc:format>
        <dc:type
           rdf:resource="http://purl.org/dc/dcmitype/StillImage" />
        <dc:title></dc:title>
      </cc:Work>
    </rdf:RDF>
  </metadata>
  <g
     inkscape:label="Warstwa 1"
     inkscape:groupmode="layer"
     id="layer1">
    <path
       sodipodi:type="star"
       style="fill:#000000;fill-rule:evenodd;stroke-width:0.264583"
       id="path24"
       sodipodi:sides="3"
       sodipodi:cx="116.41666"
       sodipodi:cy="117.92857"
       sodipodi:r1="67.360405"
       sodipodi:r2="31.659056"
       sodipodi:arg1="0.80126985"
       sodipodi:arg2="1.8484674"
       inkscape:flatsided="false"
       inkscape:rounded="0"
       inkscape:randomized="0"
       d="M 163.2857,166.30953 107.73838,148.37497 51.082999,134.32788 94.388437,95.189766 134.88127,53.148312 147.12315,110.22098 Z"
       inkscape:transform-center-x="13.462014"
       inkscape:transform-center-y="-10.993243"
       transform="matrix(1.4581419,0,0,1.340696,-50.617549,-38.518131)" />
    <circle
       style="fill:#ff0000;stroke-width:0.264583"
       id="path54"
       cx="98.462799"
       cy="186.72025"
       r="69.16964" />
    <path
       sodipodi:type="spiral"
       style="fill:#e30000;fill-rule:evenodd;stroke:#000000;stroke-width:0.264583;fill-opacity:1"
       id="path60"
       sodipodi:cx="96.383926"
       sodipodi:cy="188.61011"
       sodipodi:expansion="1"
       sodipodi:revolution="3"
       sodipodi:radius="70.495346"
       sodipodi:argument="-18.655315"
       sodipodi:t0="0"
       d="m 96.383926,188.61011 c 3.468057,0.68224 0.791373,5.01146 -1.133925,5.76413 -5.217439,2.03971 -9.851343,-3.28642 -10.394349,-8.03198 -0.971312,-8.48871 6.994717,-14.9066 14.930052,-15.02456 11.645426,-0.17312 20.058876,10.73423 19.654776,21.82811 -0.5386,14.7864 -14.48233,25.24931 -28.726183,24.28498 -17.924434,-1.2135 -30.458845,-18.2339 -28.915195,-35.62424 1.869566,-21.06203 21.987314,-35.67932 42.522308,-33.5454 24.19977,2.51474 40.90664,25.74185 38.17562,49.42036 -3.15308,27.33779 -29.49715,46.13855 -56.318436,42.80583 -30.476055,-3.78684 -51.373642,-33.25296 -47.436042,-63.21649 4.417392,-33.61455 37.009183,-56.61107 70.114558,-52.06625 36.75324,5.0456 61.85024,40.7657 56.69647,77.01262" />
  </g>
</svg>